<svg xmlns="http://www.w3.org/2000/svg" width="23" height="18" viewBox="0 0 23 18"><defs><style>.cls-1{fill:#33c8f3;}</style></defs><g id="Layer_2" data-name="Layer 2"><g id="Layer_1-2" data-name="Layer 1"><path class="cls-1" d="M22.4916,7.7639,15.3979.5019a1.6817,1.6817,0,0,0-2.3968,0,1.78,1.78,0,0,0,0,2.4537L17.19,7.2682H1.6947a1.7354,1.7354,0,0,0,0,3.47H17.19l-4.1884,4.2878a1.78,1.78,0,0,0,0,2.4537,1.6678,1.6678,0,0,0,2.421,0l7.0695-7.2372A1.7855,1.7855,0,0,0,23,9.0031,1.6857,1.6857,0,0,0,22.4916,7.7639Z"/></g></g></svg>